<svg xmlns="http://www.w3.org/2000/svg" xmlns:xlink="http://www.w3.org/1999/xlink" width="1440" height="770" viewBox="0 0 1440 770">
  <defs>
    <linearGradient id="linear-gradient" x1="0.141" y1="0.5" x2="1" y2="0.487" gradientUnits="objectBoundingBox">
      <stop offset="0" stop-color="#052838"/>
      <stop offset="0" stop-color="#052838" stop-opacity="0.937"/>
      <stop offset="0.424" stop-color="#052838" stop-opacity="0.788"/>
      <stop offset="1" stop-color="#052838" stop-opacity="0"/>
    </linearGradient>
    <clipPath id="clip-path">
      <rect id="Rectangle_181" data-name="Rectangle 181" width="1440" height="680" fill="url(#linear-gradient)"/>
    </clipPath>
    <linearGradient id="linear-gradient-2" x1="0.39" y1="0.486" x2="1" y2="0.487" gradientUnits="objectBoundingBox">
      <stop offset="0" stop-color="#052838"/>
      <stop offset="0.074" stop-color="#052838" stop-opacity="0.937"/>
      <stop offset="0.599" stop-color="#052838" stop-opacity="0.788"/>
      <stop offset="1" stop-color="#052838" stop-opacity="0"/>
    </linearGradient>
    <linearGradient id="linear-gradient-3" x1="0.5" x2="0.5" y2="1" gradientUnits="objectBoundingBox">
      <stop offset="0" stop-color="#052838" stop-opacity="0"/>
      <stop offset="1" stop-color="#052838"/>
    </linearGradient>
    <clipPath id="clip-Hero_Image">
      <rect width="1440" height="770"/>
    </clipPath>
  </defs>
  <g id="Hero_Image" data-name="Hero Image" clip-path="url(#clip-Hero_Image)">
    <rect width="1440" height="770" fill="#052838"/>
    <g id="hero_image_background" data-name="hero image background" opacity="0.8">
      <path id="Path_1049" data-name="Path 1049" d="M0,0H1440V680H0Z" fill="#052838"/>
      <g id="Mask_Group_18" data-name="Mask Group 18" transform="translate(0 90)" clip-path="url(#clip-path)">
        <g id="name_in_binary_code" data-name="name in binary code" transform="translate(251.886 504.042) rotate(-90)">
          <g id="Group_3726" data-name="Group 3726">
            <g id="Group_3719" data-name="Group 3719" transform="translate(0 0)">
              <path id="Path_12560" data-name="Path 12560" d="M14.954,112.733A14.949,14.949,0,0,1,0,97.788V14.954a14.954,14.954,0,1,1,29.909,0V97.788A14.949,14.949,0,0,1,14.954,112.733Z" transform="translate(0.194 148.103)" fill="#00a1aa"/>
              <path id="Path_12561" data-name="Path 12561" d="M15.167,30.286A15.317,15.317,0,0,1,4.433,25.853a17.466,17.466,0,0,1-1.887-2.3,17.073,17.073,0,0,1-1.394-2.633A17.449,17.449,0,0,1,.3,18.081,13.705,13.705,0,0,1,0,15.128a13.983,13.983,0,0,1,.3-2.962,18.046,18.046,0,0,1,.852-2.836,15.936,15.936,0,0,1,1.394-2.6,14.954,14.954,0,0,1,1.887-2.3,15.935,15.935,0,0,1,2.3-1.887,19.3,19.3,0,0,1,2.6-1.394A13.988,13.988,0,0,1,12.176.29a15.349,15.349,0,0,1,5.943,0,13.629,13.629,0,0,1,2.836.852,18.2,18.2,0,0,1,2.6,1.394,15.935,15.935,0,0,1,2.3,1.887,16.231,16.231,0,0,1,1.9,2.3,15.188,15.188,0,0,1,1.384,2.6,16.234,16.234,0,0,1,.861,2.836,14.631,14.631,0,0,1,.29,2.962,14.337,14.337,0,0,1-.29,2.952,15.745,15.745,0,0,1-.861,2.836,16.228,16.228,0,0,1-1.384,2.633,16.8,16.8,0,0,1-1.9,2.3,15.2,15.2,0,0,1-2.3,1.868,12.672,12.672,0,0,1-2.633,1.384A14.8,14.8,0,0,1,18.119,30,16.952,16.952,0,0,1,15.167,30.286Z" transform="translate(0 361.382)" fill="#00a1aa"/>
              <path id="Path_12562" data-name="Path 12562" d="M15.167,30.3A15.245,15.245,0,0,1,4.433,25.863a15.43,15.43,0,0,1-1.887-2.3,16.771,16.771,0,0,1-1.394-2.6A17.448,17.448,0,0,1,.3,18.119,13.894,13.894,0,0,1,0,15.167a13.794,13.794,0,0,1,.3-2.962,18.046,18.046,0,0,1,.852-2.836A18.007,18.007,0,0,1,2.546,6.737a16.478,16.478,0,0,1,1.887-2.3A15.369,15.369,0,0,1,15.167,0a15.348,15.348,0,0,1,10.7,4.433,15.89,15.89,0,0,1,1.9,2.3,17.067,17.067,0,0,1,1.384,2.633,16.233,16.233,0,0,1,.861,2.836,14.431,14.431,0,0,1,.29,2.962A15.135,15.135,0,0,1,15.167,30.3Z" transform="translate(0 0)" fill="#00a1aa"/>
              <path id="Path_12563" data-name="Path 12563" d="M15.138,30.3a17.082,17.082,0,0,1-2.962-.3,15.312,15.312,0,0,1-2.836-.891,12,12,0,0,1-2.6-1.384,14.341,14.341,0,0,1-2.3-1.858A15.279,15.279,0,0,1,0,15.129a13.83,13.83,0,0,1,.3-2.952,13.37,13.37,0,0,1,.852-2.846A15.839,15.839,0,0,1,2.546,6.737a14.933,14.933,0,0,1,4.191-4.2,15.935,15.935,0,0,1,2.6-1.394A13.87,13.87,0,0,1,12.176.29a15.2,15.2,0,0,1,5.914,0,13.691,13.691,0,0,1,2.836.852,17.526,17.526,0,0,1,2.633,1.394,15.937,15.937,0,0,1,2.3,1.887,14.468,14.468,0,0,1,1.868,2.313,12.358,12.358,0,0,1,1.384,2.594,16.174,16.174,0,0,1,.89,2.846,16.857,16.857,0,0,1,.29,2.952,16.589,16.589,0,0,1-.29,2.952,16.176,16.176,0,0,1-.89,2.846,13.343,13.343,0,0,1-1.384,2.623,15.881,15.881,0,0,1-1.868,2.313,15.74,15.74,0,0,1-2.3,1.858,12.922,12.922,0,0,1-2.633,1.384A15.087,15.087,0,0,1,18.09,30,16.784,16.784,0,0,1,15.138,30.3Z" transform="translate(0 1274.603)" fill="#00a1aa"/>
              <path id="Path_12564" data-name="Path 12564" d="M15.138,30.278a14.636,14.636,0,0,1-2.962-.29,13.312,13.312,0,0,1-2.836-.861,15.183,15.183,0,0,1-2.6-1.384,14.047,14.047,0,0,1-2.3-1.9,12.958,12.958,0,0,1-1.887-2.3,15.549,15.549,0,0,1-1.394-2.6A13.124,13.124,0,0,1,.3,18.1,13.894,13.894,0,0,1,0,15.15a13.983,13.983,0,0,1,.3-2.962,13.457,13.457,0,0,1,.852-2.836A15.14,15.14,0,0,1,2.546,6.729,14.356,14.356,0,0,1,4.433,4.445a12.1,12.1,0,0,1,2.3-1.887,12.465,12.465,0,0,1,2.6-1.394A16.05,16.05,0,0,1,12.176.283,15.252,15.252,0,0,1,25.834,4.445a14.413,14.413,0,0,1,1.9,2.284,13.343,13.343,0,0,1,1.384,2.623,16.331,16.331,0,0,1,.89,2.836,17.058,17.058,0,0,1,.29,2.962,16.949,16.949,0,0,1-.29,2.952,15.826,15.826,0,0,1-.89,2.836,12.2,12.2,0,0,1-1.384,2.6,13,13,0,0,1-1.9,2.3A15.08,15.08,0,0,1,15.138,30.278Z" transform="translate(0 1329.297)" fill="#00a1aa"/>
              <path id="Path_12565" data-name="Path 12565" d="M14.954,112.752A14.958,14.958,0,0,1,0,97.8V14.954a14.954,14.954,0,1,1,29.909,0V97.8A14.958,14.958,0,0,1,14.954,112.752Z" transform="translate(0.194 1137.333)" fill="#00a1aa"/>
              <path id="Path_12566" data-name="Path 12566" d="M15.167,30.3a16.794,16.794,0,0,1-2.962-.3,18.792,18.792,0,0,1-2.836-.852,15.371,15.371,0,0,1-2.633-1.423,13.613,13.613,0,0,1-2.3-1.868,15.245,15.245,0,0,1-1.858-2.3,13.806,13.806,0,0,1-1.394-2.6A15.746,15.746,0,0,1,.3,18.113,16.077,16.077,0,0,1,0,15.161,15.387,15.387,0,0,1,4.433,4.427a15.933,15.933,0,0,1,2.3-1.887A16.636,16.636,0,0,1,9.369,1.156,15.139,15.139,0,0,1,25.863,4.427,15.262,15.262,0,0,1,30.3,15.161a14.538,14.538,0,0,1-.29,2.952,14.272,14.272,0,0,1-.861,2.836,18.145,18.145,0,0,1-1.384,2.6,15.493,15.493,0,0,1-1.9,2.3,13.613,13.613,0,0,1-2.3,1.868,15.113,15.113,0,0,1-2.6,1.423A18.463,18.463,0,0,1,18.119,30,17.062,17.062,0,0,1,15.167,30.3Z" transform="translate(0 1088.14)" fill="#00a1aa"/>
              <path id="Path_12567" data-name="Path 12567" d="M14.954,214.122A14.949,14.949,0,0,1,0,199.177V14.945a14.954,14.954,0,0,1,29.909,0V199.177A14.949,14.949,0,0,1,14.954,214.122Z" transform="translate(0.194 619.485)" fill="#00a1aa"/>
            </g>
            <g id="Group_3720" data-name="Group 3720" transform="translate(71.297 194.926)">
              <path id="Path_12568" data-name="Path 12568" d="M14.945,112.733A14.941,14.941,0,0,1,0,97.788V14.954a14.949,14.949,0,1,1,29.9,0V97.788A14.949,14.949,0,0,1,14.945,112.733Z" transform="translate(0.203 170.103)" fill="#00a1aa"/>
              <path id="Path_12569" data-name="Path 12569" d="M15.167,30.3A15.279,15.279,0,0,1,4.433,25.863a15.429,15.429,0,0,1-1.887-2.3,16.771,16.771,0,0,1-1.394-2.6A18.465,18.465,0,0,1,.3,18.119,13.958,13.958,0,0,1,0,15.167a13.794,13.794,0,0,1,.3-2.962,18.8,18.8,0,0,1,.852-2.836A18.008,18.008,0,0,1,2.546,6.737a16.477,16.477,0,0,1,1.887-2.3A15.4,15.4,0,0,1,15.167,0a15.348,15.348,0,0,1,10.7,4.433,15.891,15.891,0,0,1,1.9,2.3,17.068,17.068,0,0,1,1.384,2.633,15.222,15.222,0,0,1,.861,2.836,14.431,14.431,0,0,1,.29,2.962A15.135,15.135,0,0,1,15.167,30.3Z" transform="translate(0 0)" fill="#00a1aa"/>
              <path id="Path_12570" data-name="Path 12570" d="M15.138,30.3a17.078,17.078,0,0,1-2.962-.3,15.545,15.545,0,0,1-2.836-.89,12.224,12.224,0,0,1-2.6-1.384,14.341,14.341,0,0,1-2.3-1.858A15.279,15.279,0,0,1,0,15.128a13.831,13.831,0,0,1,.3-2.952,13.371,13.371,0,0,1,.852-2.846A15.839,15.839,0,0,1,2.546,6.737a14.932,14.932,0,0,1,4.191-4.2,16.343,16.343,0,0,1,2.6-1.394A14.052,14.052,0,0,1,12.176.29a15.2,15.2,0,0,1,5.914,0,13.688,13.688,0,0,1,2.836.852,17.071,17.071,0,0,1,2.633,1.394,15.427,15.427,0,0,1,2.3,1.887,13.96,13.96,0,0,1,1.868,2.313,11.925,11.925,0,0,1,1.384,2.594,15.4,15.4,0,0,1,.89,2.846,16.857,16.857,0,0,1,.29,2.952,16.587,16.587,0,0,1-.29,2.952,15.4,15.4,0,0,1-.89,2.846,12.849,12.849,0,0,1-1.384,2.623,15.271,15.271,0,0,1-1.868,2.313,15.245,15.245,0,0,1-2.3,1.858,12.674,12.674,0,0,1-2.633,1.384A15.086,15.086,0,0,1,18.09,30,16.687,16.687,0,0,1,15.138,30.3Z" transform="translate(0 883.132)" fill="#00a1aa"/>
              <path id="Path_12571" data-name="Path 12571" d="M15.138,30.278a14.636,14.636,0,0,1-2.962-.29,13.485,13.485,0,0,1-2.836-.861,15.56,15.56,0,0,1-2.6-1.384,14.053,14.053,0,0,1-2.3-1.9,12.958,12.958,0,0,1-1.887-2.3,15.55,15.55,0,0,1-1.394-2.6A13.123,13.123,0,0,1,.3,18.1,13.894,13.894,0,0,1,0,15.15a13.983,13.983,0,0,1,.3-2.962,13.457,13.457,0,0,1,.852-2.836A15.14,15.14,0,0,1,2.546,6.729,14.357,14.357,0,0,1,4.433,4.445a12.1,12.1,0,0,1,2.3-1.887,12.712,12.712,0,0,1,2.6-1.394A16.3,16.3,0,0,1,12.176.283,15.252,15.252,0,0,1,25.834,4.445a13.91,13.91,0,0,1,1.9,2.284,12.847,12.847,0,0,1,1.384,2.623,15.54,15.54,0,0,1,.89,2.836,17.057,17.057,0,0,1,.29,2.962,16.949,16.949,0,0,1-.29,2.952,15.082,15.082,0,0,1-.89,2.836,11.777,11.777,0,0,1-1.384,2.6,12.6,12.6,0,0,1-1.9,2.3A15.121,15.121,0,0,1,15.138,30.278Z" transform="translate(0 937.827)" fill="#00a1aa"/>
              <path id="Path_12572" data-name="Path 12572" d="M14.945,112.752A14.943,14.943,0,0,1,0,97.8V14.954a14.949,14.949,0,1,1,29.9,0V97.8A14.952,14.952,0,0,1,14.945,112.752Z" transform="translate(0.203 746.279)" fill="#00a1aa"/>
              <path id="Path_12573" data-name="Path 12573" d="M15.167,30.29A16.783,16.783,0,0,1,12.205,30a18.076,18.076,0,0,1-2.836-.861,14.68,14.68,0,0,1-2.633-1.413,13.618,13.618,0,0,1-2.3-1.868,15.245,15.245,0,0,1-1.858-2.3,13.8,13.8,0,0,1-1.394-2.6A16.562,16.562,0,0,1,.3,18.113,16.076,16.076,0,0,1,0,15.161,15.387,15.387,0,0,1,4.433,4.427a15.937,15.937,0,0,1,2.3-1.887A17.526,17.526,0,0,1,9.369,1.146,15.419,15.419,0,0,1,12.205.294,15.124,15.124,0,0,1,30.3,15.161a14.538,14.538,0,0,1-.29,2.952,14.273,14.273,0,0,1-.861,2.836,17.225,17.225,0,0,1-1.384,2.6,14.916,14.916,0,0,1-1.9,2.3,13.247,13.247,0,0,1-2.3,1.868,14.115,14.115,0,0,1-2.6,1.413A17.472,17.472,0,0,1,18.119,30,16.947,16.947,0,0,1,15.167,30.29Z" transform="translate(0 1224.434)" fill="#00a1aa"/>
              <path id="Path_12574" data-name="Path 12574" d="M14.945,214.131A14.943,14.943,0,0,1,0,199.177V14.954a14.949,14.949,0,1,1,29.9,0V199.177A14.951,14.951,0,0,1,14.945,214.131Z" transform="translate(0.203 431.453)" fill="#00a1aa"/>
              <path id="Path_12575" data-name="Path 12575" d="M14.945,214.132A14.949,14.949,0,0,1,0,199.177V14.954a14.949,14.949,0,1,1,29.9,0V199.177A14.958,14.958,0,0,1,14.945,214.132Z" transform="translate(0.203 992.467)" fill="#00a1aa"/>
            </g>
            <g id="Group_3721" data-name="Group 3721" transform="translate(142.593 518.362)">
              <path id="Path_12576" data-name="Path 12576" d="M15.167,30.3A15.352,15.352,0,0,1,4.433,25.863a18.215,18.215,0,0,1-1.887-2.313,17.427,17.427,0,0,1-1.394-2.623A19.14,19.14,0,0,1,.3,18.09,13.8,13.8,0,0,1,0,15.129a13.894,13.894,0,0,1,.3-2.952A18.462,18.462,0,0,1,1.152,9.34a15.552,15.552,0,0,1,1.394-2.6,14.086,14.086,0,0,1,1.887-2.3,15.463,15.463,0,0,1,2.313-1.9A17.6,17.6,0,0,1,9.34,1.152,14.026,14.026,0,0,1,12.176.29a15.349,15.349,0,0,1,5.943,0,13.927,13.927,0,0,1,2.846.861,17.6,17.6,0,0,1,2.594,1.384,14.914,14.914,0,0,1,2.3,1.9,15.212,15.212,0,0,1,1.9,2.3,15.551,15.551,0,0,1,1.394,2.6,15.714,15.714,0,0,1,.852,2.836,14.72,14.72,0,0,1,0,5.914,16.2,16.2,0,0,1-.852,2.836,17.426,17.426,0,0,1-1.394,2.623,17.486,17.486,0,0,1-1.9,2.313,15.247,15.247,0,0,1-2.3,1.858,13.193,13.193,0,0,1-2.633,1.394A15.5,15.5,0,0,1,18.119,30,15.989,15.989,0,0,1,15.167,30.3Z" transform="translate(0 712.549)" fill="#00a1aa"/>
              <path id="Path_12577" data-name="Path 12577" d="M14.945,112.733A14.949,14.949,0,0,1,0,97.779V14.945a14.949,14.949,0,0,1,29.9,0V97.779A14.958,14.958,0,0,1,14.945,112.733Z" transform="translate(0.203 295.823)" fill="#00a1aa"/>
              <path id="Path_12578" data-name="Path 12578" d="M15.167,30.3A15.279,15.279,0,0,1,4.433,25.863a15.937,15.937,0,0,1-1.887-2.3,17.223,17.223,0,0,1-1.394-2.6A18.8,18.8,0,0,1,.3,18.119,13.984,13.984,0,0,1,0,15.158a13.769,13.769,0,0,1,.3-2.952,18.8,18.8,0,0,1,.852-2.836A17.527,17.527,0,0,1,2.546,6.737a15.937,15.937,0,0,1,1.887-2.3A15.4,15.4,0,0,1,15.167,0,15.2,15.2,0,0,1,27.76,6.737a17.526,17.526,0,0,1,1.394,2.633,15.955,15.955,0,0,1,.852,2.836,14.413,14.413,0,0,1,.3,2.952A15.152,15.152,0,0,1,15.167,30.3Z" fill="#00a1aa"/>
              <path id="Path_12579" data-name="Path 12579" d="M15.138,30.3a17.056,17.056,0,0,1-2.962-.29,16.329,16.329,0,0,1-2.836-.89,12.712,12.712,0,0,1-2.6-1.394,14.78,14.78,0,0,1-2.3-1.858A15.245,15.245,0,0,1,0,15.129a13.958,13.958,0,0,1,.3-2.952A13.689,13.689,0,0,1,1.152,9.34a15.551,15.551,0,0,1,1.394-2.6,14.086,14.086,0,0,1,1.887-2.3,14.468,14.468,0,0,1,2.3-1.9,16.3,16.3,0,0,1,2.6-1.384A14.081,14.081,0,0,1,12.176.29a15.2,15.2,0,0,1,5.914,0,13.713,13.713,0,0,1,2.836.861,17.028,17.028,0,0,1,2.633,1.384,14.911,14.911,0,0,1,2.3,1.9,13.5,13.5,0,0,1,1.868,2.3,11.777,11.777,0,0,1,1.384,2.6,15.081,15.081,0,0,1,.89,2.836,17.06,17.06,0,0,1,.3,2.952,16.792,16.792,0,0,1-.3,2.962,15.308,15.308,0,0,1-.89,2.836,13.176,13.176,0,0,1-1.384,2.633,15.192,15.192,0,0,1-1.868,2.3,15.245,15.245,0,0,1-2.3,1.858,13.192,13.192,0,0,1-2.633,1.394,15.823,15.823,0,0,1-2.836.89A16.675,16.675,0,0,1,15.138,30.3Z" transform="translate(0 433.18)" fill="#00a1aa"/>
              <path id="Path_12580" data-name="Path 12580" d="M15.138,30.288a13.987,13.987,0,0,1-2.962-.3,14.055,14.055,0,0,1-2.836-.852,16.343,16.343,0,0,1-2.6-1.394,14.955,14.955,0,0,1-2.3-1.887,13.033,13.033,0,0,1-1.887-2.313,15.455,15.455,0,0,1-1.394-2.594A14.052,14.052,0,0,1,.3,18.112,13.984,13.984,0,0,1,0,15.15,13.9,13.9,0,0,1,.3,12.2a13.69,13.69,0,0,1,.852-2.836A14.88,14.88,0,0,1,2.546,6.729,13.865,13.865,0,0,1,4.433,4.454a12.459,12.459,0,0,1,2.3-1.9,12.22,12.22,0,0,1,2.6-1.384A15.539,15.539,0,0,1,12.176.283,15.231,15.231,0,0,1,25.834,4.454a13.447,13.447,0,0,1,1.9,2.275,12.67,12.67,0,0,1,1.384,2.633,15.083,15.083,0,0,1,.89,2.836,16.967,16.967,0,0,1,.3,2.952,17.074,17.074,0,0,1-.3,2.962,15.539,15.539,0,0,1-.89,2.836,11.708,11.708,0,0,1-1.384,2.594,12.667,12.667,0,0,1-1.9,2.313A15.121,15.121,0,0,1,15.138,30.288Z" transform="translate(0 764.775)" fill="#00a1aa"/>
              <path id="Path_12581" data-name="Path 12581" d="M14.945,214.132A14.949,14.949,0,0,1,0,199.177V14.954a14.949,14.949,0,1,1,29.9,0V199.177A14.958,14.958,0,0,1,14.945,214.132Z" transform="translate(0.203 55.103)" fill="#00a1aa"/>
              <path id="Path_12582" data-name="Path 12582" d="M14.945,214.132A14.95,14.95,0,0,1,0,199.177V14.954a14.949,14.949,0,1,1,29.9,0V199.177A14.958,14.958,0,0,1,14.945,214.132Z" transform="translate(0.203 479.301)" fill="#00a1aa"/>
              <path id="Path_12583" data-name="Path 12583" d="M14.945,112.733A14.949,14.949,0,0,1,0,97.779V14.954a14.949,14.949,0,1,1,29.9,0V97.779A14.958,14.958,0,0,1,14.945,112.733Z" transform="translate(0.203 815.128)" fill="#00a1aa"/>
            </g>
            <g id="Group_3722" data-name="Group 3722" transform="translate(427.789 276.883)">
              <path id="Path_12584" data-name="Path 12584" d="M14.954,112.752A14.949,14.949,0,0,1,0,97.808V14.954a14.954,14.954,0,0,1,29.909,0V97.808A14.949,14.949,0,0,1,14.954,112.752Z" transform="translate(0.194 851.923)" fill="#00a1aa"/>
              <path id="Path_12585" data-name="Path 12585" d="M15.158,30.3a16.764,16.764,0,0,1-2.952-.29,18.489,18.489,0,0,1-2.836-.861,15.367,15.367,0,0,1-2.633-1.423,13.645,13.645,0,0,1-2.3-1.858,15.8,15.8,0,0,1-1.868-2.3,13.5,13.5,0,0,1-1.384-2.6,16.868,16.868,0,0,1-.89-2.836A17.055,17.055,0,0,1,0,15.16,15.364,15.364,0,0,1,4.433,4.436a14.912,14.912,0,0,1,2.3-1.9A18.393,18.393,0,0,1,9.369,1.155,15.733,15.733,0,0,1,12.205.293,15.136,15.136,0,0,1,30.3,15.16a13.982,13.982,0,0,1-.3,2.962,14.428,14.428,0,0,1-.852,2.836,18.734,18.734,0,0,1-1.394,2.6,15.937,15.937,0,0,1-1.887,2.3,14.042,14.042,0,0,1-2.3,1.858,15.112,15.112,0,0,1-2.6,1.423,18.829,18.829,0,0,1-2.836.861A17.057,17.057,0,0,1,15.158,30.3Z" transform="translate(0 1077.521)" fill="#00a1aa"/>
              <path id="Path_12586" data-name="Path 12586" d="M14.954,112.733A14.958,14.958,0,0,1,0,97.779V14.954a14.954,14.954,0,1,1,29.909,0V97.779A14.958,14.958,0,0,1,14.954,112.733Z" transform="translate(0.194 148.103)" fill="#00a1aa"/>
              <path id="Path_12587" data-name="Path 12587" d="M15.158,30.3A15.239,15.239,0,0,1,4.433,25.863a16.082,16.082,0,0,1-1.9-2.313,15.849,15.849,0,0,1-1.384-2.594A19.169,19.169,0,0,1,.29,18.119,14.632,14.632,0,0,1,0,15.158a14.338,14.338,0,0,1,.29-2.952,18.491,18.491,0,0,1,.861-2.836A16.636,16.636,0,0,1,2.536,6.737a15.493,15.493,0,0,1,1.9-2.3,15.166,15.166,0,0,1,21.43,0,15.429,15.429,0,0,1,1.887,2.3,17.526,17.526,0,0,1,1.394,2.633,15.744,15.744,0,0,1,.861,2.836,14.339,14.339,0,0,1,.29,2.952A15.135,15.135,0,0,1,15.158,30.3Z" transform="translate(0 0)" fill="#00a1aa"/>
              <path id="Path_12588" data-name="Path 12588" d="M15.129,30.289A17.039,17.039,0,0,1,12.176,30a15.823,15.823,0,0,1-2.836-.89,11.814,11.814,0,0,1-2.6-1.394,13.448,13.448,0,0,1-2.3-1.858A15.245,15.245,0,0,1,0,15.121a14.6,14.6,0,0,1,.29-2.952,13.708,13.708,0,0,1,.861-2.836,15.189,15.189,0,0,1,1.384-2.6,14.052,14.052,0,0,1,1.9-2.3,13.6,13.6,0,0,1,2.3-1.887,14.883,14.883,0,0,1,2.6-1.394A13.717,13.717,0,0,1,12.176.283a15.583,15.583,0,0,1,5.914,0,14.085,14.085,0,0,1,2.836.861,16.7,16.7,0,0,1,2.633,1.394,15.322,15.322,0,0,1,2.3,1.887,14.343,14.343,0,0,1,1.858,2.3,12.47,12.47,0,0,1,1.394,2.6A15.054,15.054,0,0,1,30,12.169a16.162,16.162,0,0,1,.3,2.952,15.927,15.927,0,0,1-.3,2.962,15.282,15.282,0,0,1-.881,2.836,13.465,13.465,0,0,1-1.394,2.633,15.739,15.739,0,0,1-1.858,2.3,15.131,15.131,0,0,1-2.3,1.858,12.966,12.966,0,0,1-2.633,1.394A16.33,16.33,0,0,1,18.09,30,16.783,16.783,0,0,1,15.129,30.289Z" transform="translate(0 982.279)" fill="#00a1aa"/>
              <path id="Path_12589" data-name="Path 12589" d="M15.129,30.284a14.608,14.608,0,0,1-2.952-.29,13.715,13.715,0,0,1-2.836-.861,15.557,15.557,0,0,1-2.6-1.394,14.084,14.084,0,0,1-2.3-1.887,12.931,12.931,0,0,1-1.9-2.3,15.189,15.189,0,0,1-1.384-2.6A13.889,13.889,0,0,1,.29,18.108a15.2,15.2,0,0,1,0-5.914,13.893,13.893,0,0,1,.861-2.836A14.228,14.228,0,0,1,2.536,6.725a13.835,13.835,0,0,1,1.9-2.275,11.47,11.47,0,0,1,2.3-1.887A11.814,11.814,0,0,1,9.34,1.17a15.823,15.823,0,0,1,2.836-.89A15.265,15.265,0,0,1,25.834,4.451a14.281,14.281,0,0,1,1.887,2.275,13.2,13.2,0,0,1,1.394,2.633A15.281,15.281,0,0,1,30,12.194a16.163,16.163,0,0,1,.3,2.952,16.18,16.18,0,0,1-.3,2.962,15.278,15.278,0,0,1-.881,2.836,12.47,12.47,0,0,1-1.394,2.6,13.315,13.315,0,0,1-1.887,2.3A15.143,15.143,0,0,1,15.129,30.284Z" transform="translate(0 1030.592)" fill="#00a1aa"/>
              <path id="Path_12590" data-name="Path 12590" d="M14.954,112.752A14.958,14.958,0,0,1,0,97.8V14.954a14.954,14.954,0,0,1,29.909,0V97.8A14.958,14.958,0,0,1,14.954,112.752Z" transform="translate(0.194 721.7)" fill="#00a1aa"/>
              <path id="Path_12591" data-name="Path 12591" d="M14.954,214.132A14.952,14.952,0,0,1,0,199.177V14.954a14.954,14.954,0,1,1,29.909,0V199.177A14.952,14.952,0,0,1,14.954,214.132Z" transform="translate(0.194 396.659)" fill="#00a1aa"/>
            </g>
            <g id="Group_3723" data-name="Group 3723" transform="translate(213.889 533.674)">
              <path id="Path_12592" data-name="Path 12592" d="M14.945,112.733A14.943,14.943,0,0,1,0,97.779V14.954a14.949,14.949,0,1,1,29.9,0V97.779A14.945,14.945,0,0,1,14.945,112.733Z" transform="translate(0.203 55.103)" fill="#00a1aa"/>
              <path id="Path_12593" data-name="Path 12593" d="M15.167,30.3A15.279,15.279,0,0,1,4.433,25.863a15.937,15.937,0,0,1-1.887-2.3,16.774,16.774,0,0,1-1.394-2.6A18.468,18.468,0,0,1,.3,18.119,14.622,14.622,0,0,1,0,15.167a14.439,14.439,0,0,1,.3-2.962,18.8,18.8,0,0,1,.852-2.836A17.529,17.529,0,0,1,2.546,6.737a15.938,15.938,0,0,1,1.887-2.3A15.4,15.4,0,0,1,15.167,0,15.388,15.388,0,0,1,25.872,4.433a15.935,15.935,0,0,1,1.887,2.3,17.527,17.527,0,0,1,1.394,2.633,15.955,15.955,0,0,1,.852,2.836,13.794,13.794,0,0,1,.3,2.962A15.135,15.135,0,0,1,15.167,30.3Z" fill="#00a1aa"/>
              <path id="Path_12594" data-name="Path 12594" d="M15.138,30.286A16.856,16.856,0,0,1,12.186,30a15.4,15.4,0,0,1-2.846-.89,11.924,11.924,0,0,1-2.594-1.384,13.961,13.961,0,0,1-2.313-1.868A15.239,15.239,0,0,1,0,15.128a13.985,13.985,0,0,1,.3-2.962,14.05,14.05,0,0,1,.852-2.836A15.456,15.456,0,0,1,2.546,6.737a14.8,14.8,0,0,1,4.2-4.2A15.842,15.842,0,0,1,9.34,1.142,13.371,13.371,0,0,1,12.186.29a15.151,15.151,0,0,1,5.9,0,13.371,13.371,0,0,1,2.846.852,17.428,17.428,0,0,1,2.623,1.394,16.013,16.013,0,0,1,2.313,1.887,14.417,14.417,0,0,1,1.858,2.313,11.708,11.708,0,0,1,1.384,2.594,15.54,15.54,0,0,1,.89,2.836,17.076,17.076,0,0,1,.3,2.962,16.684,16.684,0,0,1-.3,2.952,15.085,15.085,0,0,1-.89,2.836,12.672,12.672,0,0,1-1.384,2.633,15.241,15.241,0,0,1-1.858,2.3,15.268,15.268,0,0,1-2.313,1.868,12.846,12.846,0,0,1-2.623,1.384A15.4,15.4,0,0,1,18.09,30,16.586,16.586,0,0,1,15.138,30.286Z" transform="translate(0 323.225)" fill="#00a1aa"/>
              <path id="Path_12595" data-name="Path 12595" d="M15.138,30.288a14.486,14.486,0,0,1-2.952-.3,13.952,13.952,0,0,1-2.846-.852,15.834,15.834,0,0,1-2.594-1.394,14.585,14.585,0,0,1-2.313-1.887,13.389,13.389,0,0,1-1.887-2.313,15.843,15.843,0,0,1-1.394-2.594A13.955,13.955,0,0,1,.3,18.1,13.832,13.832,0,0,1,0,15.15,13.833,13.833,0,0,1,.3,12.2a13.955,13.955,0,0,1,.852-2.846A15.138,15.138,0,0,1,2.546,6.729,14.353,14.353,0,0,1,4.433,4.445,12.159,12.159,0,0,1,6.746,2.557,11.923,11.923,0,0,1,9.34,1.173a15.4,15.4,0,0,1,2.846-.89A15.241,15.241,0,0,1,25.834,4.445a13.9,13.9,0,0,1,1.9,2.284,12.846,12.846,0,0,1,1.384,2.623,15.406,15.406,0,0,1,.89,2.846,16.872,16.872,0,0,1,.3,2.952,16.871,16.871,0,0,1-.3,2.952,15.405,15.405,0,0,1-.89,2.846,11.927,11.927,0,0,1-1.384,2.594,13,13,0,0,1-1.9,2.313A15.121,15.121,0,0,1,15.138,30.288Z" transform="translate(0 866.948)" fill="#00a1aa"/>
              <path id="Path_12596" data-name="Path 12596" d="M14.945,112.752A14.949,14.949,0,0,1,0,97.8V14.954a14.949,14.949,0,1,1,29.9,0V97.8A14.952,14.952,0,0,1,14.945,112.752Z" transform="translate(0.203 187.669)" fill="#00a1aa"/>
              <path id="Path_12597" data-name="Path 12597" d="M14.945,214.131A14.943,14.943,0,0,1,0,199.177V14.954a14.949,14.949,0,1,1,29.9,0V199.177A14.945,14.945,0,0,1,14.945,214.131Z" transform="translate(0.203 505.812)" fill="#00a1aa"/>
              <path id="Path_12598" data-name="Path 12598" d="M14.945,112.733A14.949,14.949,0,0,1,0,97.779V14.945a14.949,14.949,0,0,1,29.9,0V97.779A14.951,14.951,0,0,1,14.945,112.733Z" transform="translate(0.203 372.047)" fill="#00a1aa"/>
              <path id="Path_12599" data-name="Path 12599" d="M14.945,112.752A14.943,14.943,0,0,1,0,97.8V14.954a14.949,14.949,0,1,1,29.9,0V97.8A14.945,14.945,0,0,1,14.945,112.752Z" transform="translate(0.203 739.428)" fill="#00a1aa"/>
            </g>
            <g id="Group_3724" data-name="Group 3724" transform="translate(285.186 478.755)">
              <path id="Path_12600" data-name="Path 12600" d="M14.954,214.131A14.952,14.952,0,0,1,0,199.177V14.954a14.949,14.949,0,1,1,29.9,0V199.177A14.95,14.95,0,0,1,14.954,214.131Z" transform="translate(0.203 614.393)" fill="#00a1aa"/>
              <path id="Path_12601" data-name="Path 12601" d="M14.954,112.733A14.945,14.945,0,0,1,0,97.779V14.954a14.949,14.949,0,1,1,29.9,0V97.779A14.943,14.943,0,0,1,14.954,112.733Z" transform="translate(0.203 55.103)" fill="#00a1aa"/>
              <path id="Path_12602" data-name="Path 12602" d="M15.167,30.3A15.2,15.2,0,0,1,2.546,23.559a15.944,15.944,0,0,1-1.384-2.6A17.476,17.476,0,0,1,.3,18.119,14.62,14.62,0,0,1,0,15.167a14.437,14.437,0,0,1,.3-2.962,17.773,17.773,0,0,1,.861-2.836A17.069,17.069,0,0,1,2.546,6.737,15.2,15.2,0,0,1,15.167,0,15.388,15.388,0,0,1,25.872,4.433a15.941,15.941,0,0,1,1.887,2.3,18.007,18.007,0,0,1,1.394,2.633,15.959,15.959,0,0,1,.852,2.836,13.8,13.8,0,0,1,.3,2.962A15.135,15.135,0,0,1,15.167,30.3Z" fill="#00a1aa"/>
              <path id="Path_12603" data-name="Path 12603" d="M15.138,30.3a16.872,16.872,0,0,1-2.952-.3,15.083,15.083,0,0,1-2.836-.89,11.777,11.777,0,0,1-2.6-1.384,13.928,13.928,0,0,1-2.3-1.858A15.247,15.247,0,0,1,0,15.128a14.481,14.481,0,0,1,.3-2.952,13.4,13.4,0,0,1,.861-2.846A15.1,15.1,0,0,1,2.546,6.737a14.129,14.129,0,0,1,1.9-2.313,14.091,14.091,0,0,1,2.3-1.887,15.545,15.545,0,0,1,2.6-1.394A13.688,13.688,0,0,1,12.186.29a15.153,15.153,0,0,1,5.9,0,13.954,13.954,0,0,1,2.846.852,17.422,17.422,0,0,1,2.623,1.394,16.025,16.025,0,0,1,2.313,1.887,14.42,14.42,0,0,1,1.858,2.313,12.393,12.393,0,0,1,1.394,2.594,16.145,16.145,0,0,1,.881,2.846,15.99,15.99,0,0,1,.3,2.952,15.74,15.74,0,0,1-.3,2.952,16.145,16.145,0,0,1-.881,2.846,13.385,13.385,0,0,1-1.394,2.623,15.821,15.821,0,0,1-1.858,2.313,15.823,15.823,0,0,1-2.313,1.858,12.849,12.849,0,0,1-2.623,1.384A15.4,15.4,0,0,1,18.09,30,16.593,16.593,0,0,1,15.138,30.3Z" transform="translate(0 561.835)" fill="#00a1aa"/>
              <path id="Path_12604" data-name="Path 12604" d="M15.138,30.278a14.467,14.467,0,0,1-2.952-.29,13.139,13.139,0,0,1-2.836-.861,14.837,14.837,0,0,1-2.6-1.384,13.659,13.659,0,0,1-2.3-1.9,12.6,12.6,0,0,1-1.9-2.3,14.839,14.839,0,0,1-1.384-2.6A13.146,13.146,0,0,1,.3,18.1a14.72,14.72,0,0,1,0-5.914,13.482,13.482,0,0,1,.861-2.836A14.46,14.46,0,0,1,2.546,6.729a13.911,13.911,0,0,1,1.9-2.284,11.81,11.81,0,0,1,2.3-1.887,12.228,12.228,0,0,1,2.6-1.394A15.8,15.8,0,0,1,12.186.283,15.26,15.26,0,0,1,25.843,4.445a14.354,14.354,0,0,1,1.887,2.284,13.383,13.383,0,0,1,1.394,2.623,16.3,16.3,0,0,1,.881,2.836,16.179,16.179,0,0,1,.3,2.962,16.076,16.076,0,0,1-.3,2.952,15.8,15.8,0,0,1-.881,2.836,12.228,12.228,0,0,1-1.394,2.6,12.956,12.956,0,0,1-1.887,2.3A15.119,15.119,0,0,1,15.138,30.278Z" transform="translate(0 976.787)" fill="#00a1aa"/>
              <path id="Path_12605" data-name="Path 12605" d="M14.954,112.752A14.945,14.945,0,0,1,0,97.8V14.954a14.949,14.949,0,1,1,29.9,0V97.8A14.943,14.943,0,0,1,14.954,112.752Z" transform="translate(0.203 426.279)" fill="#00a1aa"/>
              <path id="Path_12606" data-name="Path 12606" d="M14.954,214.132A14.952,14.952,0,0,1,0,199.177V14.954a14.949,14.949,0,1,1,29.9,0V199.177A14.95,14.95,0,0,1,14.954,214.132Z" transform="translate(0.203 187.669)" fill="#00a1aa"/>
              <path id="Path_12607" data-name="Path 12607" d="M14.954,112.752A14.952,14.952,0,0,1,0,97.8V14.954a14.949,14.949,0,1,1,29.9,0V97.8A14.95,14.95,0,0,1,14.954,112.752Z" transform="translate(0.203 849.267)" fill="#00a1aa"/>
            </g>
            <g id="Group_3725" data-name="Group 3725" transform="translate(356.492 114.568)">
              <path id="Path_12608" data-name="Path 12608" d="M15.158,30.288A15.312,15.312,0,0,1,4.433,25.855a16.793,16.793,0,0,1-1.9-2.3,16.224,16.224,0,0,1-1.384-2.633A18.49,18.49,0,0,1,.29,18.083,14.4,14.4,0,0,1,0,15.131a14.632,14.632,0,0,1,.29-2.962,18.821,18.821,0,0,1,.861-2.836,15.186,15.186,0,0,1,1.384-2.6,14.472,14.472,0,0,1,1.9-2.3,15.433,15.433,0,0,1,2.3-1.887,18.2,18.2,0,0,1,2.6-1.394A14.271,14.271,0,0,1,12.176.283a15.735,15.735,0,0,1,5.943,0,14.669,14.669,0,0,1,2.836.861,19.293,19.293,0,0,1,2.6,1.394,15.939,15.939,0,0,1,2.3,1.887,16.855,16.855,0,0,1,1.887,2.3,15.939,15.939,0,0,1,1.394,2.6A15.192,15.192,0,0,1,30,12.169a13.983,13.983,0,0,1,.3,2.962,13.768,13.768,0,0,1-.3,2.952,14.978,14.978,0,0,1-.852,2.836,17.074,17.074,0,0,1-1.394,2.633,17.463,17.463,0,0,1-1.887,2.3,15.193,15.193,0,0,1-2.3,1.868,13.178,13.178,0,0,1-2.633,1.384,16.033,16.033,0,0,1-2.807.89A17.06,17.06,0,0,1,15.158,30.288Z" transform="translate(0 885.958)" fill="#00a1aa"/>
              <path id="Path_12609" data-name="Path 12609" d="M14.954,112.733A14.952,14.952,0,0,1,0,97.779V14.954a14.949,14.949,0,1,1,29.9,0V97.779A14.943,14.943,0,0,1,14.954,112.733Z" transform="translate(0.194 465.823)" fill="#00a1aa"/>
              <path id="Path_12610" data-name="Path 12610" d="M15.158,30.305A15.239,15.239,0,0,1,4.433,25.872a15.462,15.462,0,0,1-1.9-2.313,15.847,15.847,0,0,1-1.384-2.594A19.168,19.168,0,0,1,.29,18.129,14.632,14.632,0,0,1,0,15.167a14.338,14.338,0,0,1,.29-2.952,18.489,18.489,0,0,1,.861-2.836A16.224,16.224,0,0,1,2.536,6.746a14.915,14.915,0,0,1,1.9-2.3A15.331,15.331,0,0,1,15.158,0,15.149,15.149,0,0,1,27.75,6.746a17.075,17.075,0,0,1,1.394,2.633A14.977,14.977,0,0,1,30,12.215a13.705,13.705,0,0,1,.3,2.952A15.135,15.135,0,0,1,15.158,30.305Z" transform="translate(0 0)" fill="#00a1aa"/>
              <path id="Path_12611" data-name="Path 12611" d="M15.128,30.3a16.868,16.868,0,0,1-2.952-.3,15.083,15.083,0,0,1-2.836-.89,11.778,11.778,0,0,1-2.6-1.384,13.93,13.93,0,0,1-2.3-1.858A15.237,15.237,0,0,1,0,15.129a14.471,14.471,0,0,1,.29-2.952,13.4,13.4,0,0,1,.861-2.846A15.1,15.1,0,0,1,2.536,6.737a14.125,14.125,0,0,1,1.9-2.313,14.089,14.089,0,0,1,2.3-1.887,15.549,15.549,0,0,1,2.6-1.394A13.685,13.685,0,0,1,12.176.29a15.2,15.2,0,0,1,5.914,0,14.048,14.048,0,0,1,2.836.852,17.424,17.424,0,0,1,2.623,1.394,16.019,16.019,0,0,1,2.313,1.887,14.415,14.415,0,0,1,1.858,2.313,12.4,12.4,0,0,1,1.394,2.594A16.146,16.146,0,0,1,30,12.176a15.99,15.99,0,0,1,.3,2.952,15.741,15.741,0,0,1-.3,2.952,16.148,16.148,0,0,1-.881,2.846,13.388,13.388,0,0,1-1.394,2.623,15.819,15.819,0,0,1-1.858,2.313,15.822,15.822,0,0,1-2.313,1.858,12.849,12.849,0,0,1-2.623,1.384A15.542,15.542,0,0,1,18.09,30,16.79,16.79,0,0,1,15.128,30.3Z" transform="translate(0 733.19)" fill="#00a1aa"/>
              <path id="Path_12612" data-name="Path 12612" d="M15.128,30.284a14.474,14.474,0,0,1-2.952-.29,13.716,13.716,0,0,1-2.836-.861,14.875,14.875,0,0,1-2.6-1.394,13.606,13.606,0,0,1-2.3-1.887,12.932,12.932,0,0,1-1.9-2.3,15.187,15.187,0,0,1-1.384-2.6A13.314,13.314,0,0,1,.29,18.108a15.2,15.2,0,0,1,0-5.914,13.317,13.317,0,0,1,.861-2.836A14.542,14.542,0,0,1,2.536,6.725a13.839,13.839,0,0,1,1.9-2.275,11.474,11.474,0,0,1,2.3-1.887A11.813,11.813,0,0,1,9.34,1.17a15.83,15.83,0,0,1,2.836-.89A15.265,15.265,0,0,1,25.834,4.451a14.282,14.282,0,0,1,1.887,2.275,13.464,13.464,0,0,1,1.394,2.633A16.048,16.048,0,0,1,30,12.194a16.161,16.161,0,0,1,.3,2.952,16.178,16.178,0,0,1-.3,2.962,16.044,16.044,0,0,1-.881,2.836,12.469,12.469,0,0,1-1.394,2.6,13.313,13.313,0,0,1-1.887,2.3A15.143,15.143,0,0,1,15.128,30.284Z" transform="translate(0 1172.358)" fill="#00a1aa"/>
              <path id="Path_12613" data-name="Path 12613" d="M14.954,214.131A14.958,14.958,0,0,1,0,199.177V14.954a14.949,14.949,0,1,1,29.9,0V199.177A14.949,14.949,0,0,1,14.954,214.131Z" transform="translate(0.194 125.113)" fill="#00a1aa"/>
              <path id="Path_12614" data-name="Path 12614" d="M14.954,214.131A14.958,14.958,0,0,1,0,199.177V14.954a14.949,14.949,0,1,1,29.9,0V199.177A14.949,14.949,0,0,1,14.954,214.131Z" transform="translate(0.194 939.912)" fill="#00a1aa"/>
              <path id="Path_12615" data-name="Path 12615" d="M14.954,112.733A14.958,14.958,0,0,1,0,97.779V14.954a14.949,14.949,0,1,1,29.9,0V97.779A14.949,14.949,0,0,1,14.954,112.733Z" transform="translate(0.194 1222.707)" fill="#00a1aa"/>
            </g>
          </g>
        </g>
      </g>
      <rect id="Rectangle_203" data-name="Rectangle 203" width="1440" height="770" fill="url(#linear-gradient-2)"/>
    </g>
    <rect id="background_gradient" data-name="background gradient" width="1440" height="125" transform="translate(0 645)" fill="url(#linear-gradient-3)"/>
  </g>
</svg>
